<?xml version="1.0" standalone="no"?>
<!DOCTYPE svg PUBLIC "-//W3C//DTD SVG 20010904//EN"
 "http://www.w3.org/TR/2001/REC-SVG-20010904/DTD/svg10.dtd">
<svg version="1.0" xmlns="http://www.w3.org/2000/svg"
 width="650.000000pt" height="650.000000pt" viewBox="0 0 650.000000 650.000000"
 preserveAspectRatio="xMidYMid meet">
<metadata>
Created by potrace 1.14, written by Peter Selinger 2001-2017
</metadata>
<g transform="translate(0.000000,650.000000) scale(0.100000,-0.100000)"
fill="#000000" stroke="none">
<path d="M3295 5656 c17 -7 184 -48 371 -91 l342 -78 226 -347 c124 -191 226
-352 226 -358 0 -11 -12 -16 -180 -76 -69 -25 -224 -81 -345 -125 -121 -44
-274 -99 -340 -123 l-120 -44 -32 -64 c-17 -36 -34 -85 -38 -109 l-7 -43 176
-232 c158 -209 226 -291 226 -273 0 3 17 0 38 -7 44 -16 101 -12 157 10 30 11
53 33 93 88 29 40 61 88 71 107 10 19 80 222 155 452 75 229 139 417 142 417
2 0 4 -152 4 -339 l0 -338 -188 -289 c-103 -159 -204 -317 -225 -351 -34 -56
-41 -62 -85 -72 -29 -7 -198 -13 -447 -15 -391 -4 -707 -13 -733 -22 -11 -3
-137 18 -239 41 -12 3 -35 27 -54 57 -17 29 -118 186 -223 348 l-191 294 -5
346 -6 345 -2 -348 -2 -348 44 -69 c43 -66 44 -68 23 -74 -12 -3 -276 -7 -587
-8 l-565 -3 595 -5 595 -5 37 -55 c21 -30 38 -58 38 -62 0 -3 -291 -9 -647
-11 -357 -3 -673 -9 -703 -15 -262 -47 -487 -232 -560 -462 -7 -21 -8 -19 -9
16 -2 103 54 254 125 335 l38 44 -38 -35 c-54 -50 -121 -194 -135 -293 -16
-109 -15 -1468 1 -1574 16 -112 64 -210 149 -305 l71 -77 -18 -41 c-10 -22
-21 -40 -26 -40 -4 0 -8 -9 -8 -20 0 -13 9 -22 27 -27 19 -6 -9 -10 -87 -13
l-115 -5 0 -200 0 -200 90 -6 c51 -4 114 -15 145 -27 65 -24 256 -65 273 -59
7 2 -4 9 -23 15 l-35 11 40 -4 c112 -12 155 -15 340 -19 110 -2 243 0 295 5
105 9 1123 12 1265 4 50 -3 167 -13 260 -22 170 -16 352 -15 830 4 179 7 863
-11 1140 -30 99 -6 209 -11 245 -11 36 1 97 1 135 2 39 1 81 0 95 -2 14 -2 41
-4 60 -6 l35 -2 -29 -12 c-28 -13 -28 -13 25 -18 30 -3 95 -6 144 -7 98 -2
195 19 463 100 73 22 138 38 145 37 7 -2 28 7 47 19 19 12 47 25 62 28 16 4
26 11 23 16 -3 4 4 13 15 19 12 6 30 31 40 55 13 31 25 44 42 47 l23 3 3 849
2 849 -21 18 c-18 16 -111 49 -136 49 -4 0 -29 10 -55 22 l-47 23 -1 230 c0
282 -14 384 -66 488 -80 159 -226 281 -411 344 l-108 37 -628 6 c-345 4 -629
9 -632 12 -3 2 15 36 40 74 l45 69 -1 360 0 360 -232 355 -232 355 -50 11
c-140 32 -653 145 -675 149 -22 4 -21 2 5 -9z m2301 -1760 c182 -24 365 -112
454 -217 36 -42 40 -53 40 -100 l0 -53 -42 41 c-150 143 -356 213 -634 213
-100 0 -106 3 -153 82 l-22 37 28 4 c65 10 227 6 329 -7z m-2836 -682 c8 -12
34 -33 58 -49 49 -33 56 -44 10 -18 -52 29 -118 100 -118 125 1 21 2 20 18 -8
9 -16 24 -39 32 -50z m1035 11 c-25 -34 -120 -105 -139 -105 -5 0 18 17 51 39
58 37 102 85 104 113 0 10 2 10 6 0 3 -7 -7 -28 -22 -47z m-190 -126 c-22 -10
-47 -18 -55 -18 -8 0 5 8 30 19 59 24 76 24 25 -1z m-568 -25 c-3 -3 -12 -4
-19 -1 -8 3 -5 6 6 6 11 1 17 -2 13 -5z m490 0 c-3 -3 -12 -4 -19 -1 -8 3 -5
6 6 6 11 1 17 -2 13 -5z m-391 -14 c13 0 24 -4 24 -9 0 -8 -101 6 -110 16 -3
3 10 3 29 -1 18 -3 44 -6 57 -6z m347 3 c-7 -2 -19 -2 -25 0 -7 3 -2 5 12 5
14 0 19 -2 13 -5z m-55 -10 c-10 -2 -28 -2 -40 0 -13 2 -5 4 17 4 22 1 32 -1
23 -4z m-120 -10 c-21 -2 -55 -2 -75 0 -21 2 -4 4 37 4 41 0 58 -2 38 -4z
m2273 -427 c138 -17 263 -61 361 -127 95 -64 128 -108 128 -172 0 -42 5 -57
34 -91 18 -23 50 -74 70 -113 31 -62 36 -82 35 -135 l-1 -63 -12 65 c-35 180
-181 351 -366 426 -62 25 -71 27 -200 45 -102 14 -150 13 -345 -7 -179 -17
-199 -21 -247 -45 -35 -18 -73 -19 -787 -19 -504 0 -759 3 -778 11 -40 15
-199 19 -258 7 -33 -8 -432 -13 -1185 -17 l-1135 -6 -81 -31 c-100 -39 -186
-96 -249 -166 -47 -52 -115 -176 -115 -210 0 -10 -9 -33 -20 -52 -10 -20 -15
-38 -10 -41 5 -3 6 -21 3 -39 -3 -19 -1 -42 5 -52 8 -14 7 -23 -5 -36 -9 -10
-12 -18 -7 -18 10 0 12 -6 17 -82 2 -26 9 -54 16 -62 13 -15 7 -36 -9 -36 -6
0 -28 36 -50 80 -91 181 -96 460 -11 628 101 198 295 325 546 358 66 8 682 12
2315 13 1874 1 2244 -1 2341 -13z m-2676 -366 c-3 -5 -16 -15 -28 -21 -21 -10
-21 -9 2 10 25 23 36 27 26 11z m2230 -10 c-3 -5 -12 -10 -18 -10 -7 0 -6 4 3
10 19 12 23 12 15 0z m-2307 -59 c-13 -17 -27 -30 -32 -30 -6 -1 3 13 19 29
37 38 43 39 13 1z m-1708 -57 c61 -18 122 -56 144 -89 9 -13 19 -50 22 -82 9
-79 23 -102 24 -38 0 28 4 56 8 62 6 10 187 13 827 13 450 1 822 -3 826 -7 4
-4 9 -28 12 -53 3 -42 4 -41 5 13 2 66 23 102 83 141 94 63 236 72 343 21 76
-36 103 -71 112 -145 4 -33 13 -68 20 -77 12 -16 13 -10 14 44 l0 63 693 2
c380 2 754 2 830 0 l137 -3 0 -55 c0 -34 4 -53 10 -49 6 3 10 31 10 61 0 65
16 93 75 134 113 78 268 77 391 -3 25 -17 34 -29 34 -51 0 -43 21 -107 46
-141 34 -47 46 -98 39 -158 -8 -66 -43 -132 -70 -132 -22 0 -78 92 -90 147
-16 71 -73 119 -144 120 -54 1 -81 -10 -118 -45 -40 -37 -48 -75 -34 -152 11
-60 49 -115 78 -115 26 0 155 -160 190 -235 l14 -30 -6 40 c-3 22 -1 54 3 70
8 27 9 24 14 -31 10 -103 59 -170 155 -211 57 -23 194 -14 231 15 35 29 78 48
124 57 32 6 37 4 43 -15 4 -13 4 -60 0 -106 -6 -77 -8 -83 -25 -74 -10 6 -28
10 -38 10 -11 0 -44 13 -74 28 -40 21 -75 31 -134 36 -122 11 -230 71 -271
150 -9 17 -18 26 -20 19 -2 -7 0 -21 6 -32 25 -47 -16 -64 -91 -37 -43 15 -91
3 -127 -33 -32 -32 -41 -35 -301 -86 -158 -31 -328 -41 -855 -50 -447 -8 -517
-2 -630 55 -80 39 -112 49 -100 31 17 -28 -69 -31 -160 -6 -47 13 -67 15 -91
6 -17 -6 -42 -11 -56 -11 -14 0 -51 -9 -84 -21 -32 -11 -95 -24 -139 -29 -44
-5 -152 -16 -240 -25 -240 -25 -1145 -27 -1260 -3 -44 10 -113 20 -154 23 -41
4 -84 10 -97 15 -82 32 -321 32 -386 0 -23 -11 -57 -20 -76 -20 -34 0 -61 -4
-257 -36 -87 -15 -161 -34 -216 -58 -14 -6 -17 10 -24 139 -3 81 -4 149 0 153
3 3 85 6 183 7 168 0 180 1 227 25 60 30 129 96 139 133 8 34 -13 76 -69 136
-50 54 -80 110 -89 167 -10 59 11 228 33 272 63 122 229 181 381 136z m1633
-49 c-35 -66 -50 -84 -33 -40 10 26 58 105 64 105 2 0 -12 -29 -31 -65z m2228
-32 c-11 -21 -20 -35 -21 -31 0 12 33 78 38 74 2 -2 -6 -21 -17 -43z m-3402
-38 c0 -5 -8 6 -19 25 -11 19 -19 40 -19 45 0 6 8 -6 19 -25 11 -19 19 -39 19
-45z m3837 -261 c-8 -8 -18 -14 -22 -14 -5 0 -3 5 4 12 7 7 12 23 13 38 l0 25
10 -23 c6 -17 5 -27 -5 -38z"/>
<path d="M939 1837 c-39 -25 -72 -85 -67 -119 3 -21 5 -20 23 12 19 34 21 40
24 70 1 12 4 12 15 -3 11 -14 22 -16 52 -12 22 4 50 2 64 -4 22 -8 19 -10 -25
-10 -95 -2 -159 -72 -135 -147 15 -45 50 -70 115 -85 30 -7 52 -16 49 -21 -3
-4 0 -8 5 -8 6 0 11 -7 11 -15 0 -8 6 -15 13 -15 8 0 22 -9 32 -20 10 -11 15
-20 12 -20 -4 0 1 -9 10 -20 16 -19 18 -19 25 -3 5 14 7 14 8 3 7 -98 11 -123
24 -148 21 -41 68 -86 113 -108 60 -29 175 -24 250 11 50 24 75 29 183 35 121
6 663 4 980 -3 188 -5 237 3 305 47 67 45 73 53 85 116 14 73 0 109 -62 165
-92 83 -59 80 -908 80 l-745 0 -60 -24 c-33 -12 -73 -24 -89 -25 -25 -1 -31 4
-41 34 -7 19 -17 34 -23 33 -5 -1 -12 9 -14 22 -3 15 -1 22 5 18 16 -10 0 86
-21 120 -38 66 -147 88 -213 44z m177 -83 c18 -14 18 -14 -6 -3 -31 14 -36 19
-24 19 6 0 19 -7 30 -16z"/>
<path d="M3190 1841 c-45 -23 -72 -70 -68 -113 l4 -33 11 27 c7 14 16 29 21
32 6 3 8 15 5 25 -3 10 0 22 6 25 7 4 11 -1 11 -14 0 -12 4 -19 9 -16 5 3 29
8 52 10 l44 4 -41 -13 c-63 -20 -82 -33 -99 -65 -38 -74 -1 -144 90 -170 32
-9 52 -27 100 -87 45 -56 61 -70 63 -56 9 46 22 33 22 -23 1 -103 48 -172 149
-217 60 -26 166 -18 248 21 l58 27 445 0 c245 0 535 -2 645 -4 219 -4 222 -3
325 60 54 33 70 66 70 147 0 55 -19 91 -71 136 -86 74 -54 71 -899 71 l-755 0
-62 -22 c-34 -13 -64 -23 -67 -23 -2 0 -22 26 -44 58 -27 40 -40 72 -44 105
-12 104 -131 161 -228 108z m180 -91 c0 -5 -2 -10 -4 -10 -3 0 -8 5 -11 10 -3
6 -1 10 4 10 6 0 11 -4 11 -10z"/>
<path d="M3028 5613 c7 -3 16 -2 19 1 4 3 -2 6 -13 5 -11 0 -14 -3 -6 -6z"/>
<path d="M2750 5556 l-225 -51 -103 -155 c-110 -166 -125 -190 -118 -190 2 0
52 74 111 165 59 90 115 167 124 169 9 3 117 28 241 56 124 29 227 54 229 56
10 10 -48 -1 -259 -50z"/>
<path d="M3756 4780 l6 -35 -21 19 -22 20 3 -75 c3 -64 5 -74 21 -71 10 2 17
-3 17 -14 0 -16 1 -16 18 -1 10 10 24 17 30 17 6 0 19 14 28 32 15 29 15 32 0
44 -10 7 -16 15 -14 18 2 2 -7 14 -19 26 -13 11 -23 17 -23 13 -1 -4 -7 3 -16
17 -15 25 -15 25 -8 -10z"/>
<path d="M3860 4705 c0 -14 4 -25 9 -25 4 0 6 11 3 25 -2 14 -6 25 -8 25 -2 0
-4 -11 -4 -25z"/>
<path d="M3252 4227 c-87 -24 -80 -17 -321 -336 -160 -212 -178 -245 -146
-271 8 -7 12 -16 9 -22 -3 -5 2 -20 10 -33 9 -14 13 -25 10 -25 -4 0 3 -9 16
-20 12 -11 26 -17 31 -14 5 3 17 1 27 -5 10 -5 40 -12 67 -15 27 -4 57 -8 65
-10 8 -3 37 -7 64 -11 27 -3 56 -9 65 -14 9 -4 34 -6 56 -4 61 6 73 6 165 0
47 -4 104 -7 128 -7 26 0 41 -4 37 -10 -4 -6 5 -10 19 -10 16 0 26 6 26 15 0
9 9 15 25 15 34 0 30 -1 76 15 27 10 47 12 58 5 23 -12 61 -2 61 16 0 8 11 19
25 24 14 5 28 16 31 24 4 9 -69 115 -191 278 -183 243 -334 439 -338 437 -1 0
-35 -10 -75 -22z"/>
<path d="M903 3903 c9 -2 23 -2 30 0 6 3 -1 5 -18 5 -16 0 -22 -2 -12 -5z"/>
</g>
</svg>
